<svg width="20" height="18" viewBox="0 0 20 18" fill="none" xmlns="http://www.w3.org/2000/svg">
<path fill-rule="evenodd" clip-rule="evenodd" d="M11.4297 3.45264L15.9056 7.49343L6.71609 15.6855L2.24023 11.6447L11.4297 3.45264ZM9.48262 7.11743C9.70159 6.92223 10.0556 6.92334 10.2733 7.11991C10.4911 7.31648 10.4901 7.63407 10.2711 7.82927L5.48425 12.0966C5.26529 12.2918 4.91127 12.2907 4.69354 12.0941C4.4758 11.8975 4.4768 11.5799 4.69576 11.3847L9.48262 7.11743ZM12.3141 5.23959C12.0964 5.04301 11.7424 5.0419 11.5234 5.2371L11.1926 5.53199C10.9737 5.72719 10.9727 6.04478 11.1904 6.24135C11.4081 6.43792 11.7621 6.43903 11.9811 6.24383L12.3119 5.94895C12.5309 5.75375 12.5319 5.43616 12.3141 5.23959Z" fill="white"/>
<path fill-rule="evenodd" clip-rule="evenodd" d="M6.26818 16.1571L1.68617 12.124L0 17.6808L6.26818 16.1571ZM4.44163 15.7449L2.17996 13.7361L1.58138 15.6034L2.31512 16.2616L4.44163 15.7449Z" fill="white"/>
<path d="M13.1211 1.91016L17.597 5.95095L16.609 6.83169L12.1331 2.7909L13.1211 1.91016Z" fill="white"/>
<path fill-rule="evenodd" clip-rule="evenodd" d="M16.4643 0.278944C16.0582 -0.0877326 15.3991 -0.093665 14.9854 0.265631L13.6562 1.41994L18.1321 5.46073L19.4415 4.32358C19.863 3.95759 19.8693 3.35292 19.4555 2.9794L16.4643 0.278944ZM18.8439 3.665L15.7276 0.851607L14.9744 1.52308L18.0907 4.33647L18.8439 3.665Z" fill="white"/>
</svg>
