<svg width="30" height="30" viewBox="0 0 30 30" fill="none" xmlns="http://www.w3.org/2000/svg">
<path d="M22.2192 11.9159L12.0684 20.7562C11.98 20.8335 11.8749 20.8948 11.7592 20.9366C11.6435 20.9785 11.5195 21 11.3943 21C11.269 21 11.145 20.9785 11.0293 20.9366C10.9137 20.8948 10.8086 20.8335 10.7202 20.7562L6.27921 16.8886C6.19069 16.8115 6.12047 16.72 6.07256 16.6192C6.02466 16.5185 6 16.4106 6 16.3015C6 16.1925 6.02466 16.0845 6.07256 15.9838C6.12047 15.8831 6.19069 15.7916 6.27921 15.7145C6.36773 15.6374 6.47282 15.5762 6.58848 15.5345C6.70414 15.4928 6.8281 15.4713 6.95329 15.4713C7.07848 15.4713 7.20244 15.4928 7.3181 15.5345C7.43376 15.5762 7.53885 15.6374 7.62737 15.7145L11.3951 18.9958L20.8726 10.7432C21.0514 10.5875 21.2939 10.5 21.5467 10.5C21.7995 10.5 22.042 10.5875 22.2208 10.7432C22.3996 10.8989 22.5 11.11 22.5 11.3302C22.5 11.5504 22.3996 11.7616 22.2208 11.9173L22.2192 11.9159Z" fill="#009530"/>
<circle cx="15" cy="15" r="14" stroke="#009530" stroke-width="2"/>
</svg>
