<svg width="17" height="19" viewBox="0 0 17 19" fill="none" xmlns="http://www.w3.org/2000/svg">
<path d="M15.98 3.45455H12.92V2.41818C12.92 1.77684 12.6693 1.16177 12.2229 0.708269C11.7766 0.254772 11.1712 0 10.54 0H6.46C5.82878 0 5.22342 0.254772 4.77709 0.708269C4.33075 1.16177 4.08 1.77684 4.08 2.41818V3.45455H1.02C0.749479 3.45455 0.490038 3.56373 0.298751 3.75809C0.107464 3.95245 0 4.21605 0 4.49091C0 4.76577 0.107464 5.02937 0.298751 5.22373C0.490038 5.41808 0.749479 5.52727 1.02 5.52727H1.36V17.2727C1.36 17.7308 1.53911 18.1702 1.85792 18.4941C2.17673 18.818 2.60913 19 3.06 19H13.94C14.3909 19 14.8233 18.818 15.1421 18.4941C15.4609 18.1702 15.64 17.7308 15.64 17.2727V5.52727H15.98C16.2505 5.52727 16.51 5.41808 16.7012 5.22373C16.8925 5.02937 17 4.76577 17 4.49091C17 4.21605 16.8925 3.95245 16.7012 3.75809C16.51 3.56373 16.2505 3.45455 15.98 3.45455ZM6.12 2.41818C6.12 2.32656 6.15582 2.23869 6.21958 2.17391C6.28335 2.10912 6.36983 2.07273 6.46 2.07273H10.54C10.6302 2.07273 10.7167 2.10912 10.7804 2.17391C10.8442 2.23869 10.88 2.32656 10.88 2.41818V3.45455H6.12V2.41818ZM13.6 16.9273H3.4V5.52727H13.6V16.9273ZM7.48 8.29091V13.8182C7.48 14.093 7.37254 14.3566 7.18125 14.551C6.98996 14.7454 6.73052 14.8545 6.46 14.8545C6.18948 14.8545 5.93004 14.7454 5.73875 14.551C5.54746 14.3566 5.44 14.093 5.44 13.8182V8.29091C5.44 8.01605 5.54746 7.75245 5.73875 7.55809C5.93004 7.36373 6.18948 7.25455 6.46 7.25455C6.73052 7.25455 6.98996 7.36373 7.18125 7.55809C7.37254 7.75245 7.48 8.01605 7.48 8.29091ZM11.56 8.29091V13.8182C11.56 14.093 11.4525 14.3566 11.2612 14.551C11.07 14.7454 10.8105 14.8545 10.54 14.8545C10.2695 14.8545 10.01 14.7454 9.81875 14.551C9.62746 14.3566 9.52 14.093 9.52 13.8182V8.29091C9.52 8.01605 9.62746 7.75245 9.81875 7.55809C10.01 7.36373 10.2695 7.25455 10.54 7.25455C10.8105 7.25455 11.07 7.36373 11.2612 7.55809C11.4525 7.75245 11.56 8.01605 11.56 8.29091Z" fill="#E02828"/>
</svg>
