<svg width="25" height="25" viewBox="0 0 25 25" fill="none" xmlns="http://www.w3.org/2000/svg">
<path d="M24.2675 6.14626L18.8538 0.732509C18.6222 0.499568 18.3468 0.314879 18.0434 0.189142C17.74 0.0634055 17.4147 -0.000880222 17.0863 9.10243e-06H2.5C1.83696 9.10243e-06 1.20107 0.263401 0.732233 0.732242C0.263392 1.20108 0 1.83697 0 2.50001V22.5C0 23.1631 0.263392 23.7989 0.732233 24.2678C1.20107 24.7366 1.83696 25 2.5 25H22.5C23.163 25 23.7989 24.7366 24.2678 24.2678C24.7366 23.7989 25 23.1631 25 22.5V7.91376C25.0009 7.58534 24.9366 7.26001 24.8109 6.95661C24.6851 6.65321 24.5004 6.37777 24.2675 6.14626ZM17 22H8V16H17V22ZM22 22H20V15.5C20 14.837 19.7366 14.2011 19.2678 13.7322C18.7989 13.2634 18.163 13 17.5 13H7.5C6.83696 13 6.20107 13.2634 5.73223 13.7322C5.26339 14.2011 5 14.837 5 15.5V22H3V3.00001H16.875L22 8.12501V22ZM17 6.50001C17 6.89783 16.842 7.27937 16.5607 7.56067C16.2794 7.84197 15.8978 8.00001 15.5 8.00001H8.5C8.10218 8.00001 7.72064 7.84197 7.43934 7.56067C7.15804 7.27937 7 6.89783 7 6.50001C7 6.10218 7.15804 5.72065 7.43934 5.43935C7.72064 5.15804 8.10218 5.00001 8.5 5.00001H15.5C15.8978 5.00001 16.2794 5.15804 16.5607 5.43935C16.842 5.72065 17 6.10218 17 6.50001Z" fill="white"/>
</svg>
