<svg width="28" height="26" viewBox="0 0 28 26" fill="none" xmlns="http://www.w3.org/2000/svg">
<path d="M8.99177 14.5457L8.25704 15.557L8.99177 14.5457L3.58126 10.6147H10.269C11.0272 10.6147 11.6991 10.1266 11.9334 9.40553L10.7445 9.01925L11.9334 9.40553L14 3.04508L16.0666 9.40552C16.3009 10.1266 16.9728 10.6147 17.731 10.6147H24.4187L19.0082 14.5457C18.3949 14.9913 18.1382 15.7812 18.3725 16.5023L20.4391 22.8627L15.0286 18.9317C14.4153 18.4861 13.5847 18.4861 12.9714 18.9317L7.56086 22.8627L9.62749 16.5023L8.43867 16.116L9.6275 16.5023C9.86177 15.7812 9.60513 14.9913 8.99177 14.5457Z" stroke="white" stroke-width="2.5"/>
</svg>
