<svg width="35" height="35" viewBox="0 0 35 35" fill="none" xmlns="http://www.w3.org/2000/svg">
<path fill-rule="evenodd" clip-rule="evenodd" d="M17.5 35C27.1649 35 35 27.165 35 17.5C35 7.83503 27.1649 0 17.5 0C7.83505 0 0 7.83503 0 17.5C0 27.165 7.83505 35 17.5 35ZM28 17.9375C28 23.9781 23.1031 28.875 17.0625 28.875C14.1744 28.875 11.5478 27.7556 9.59285 25.9271L26.4982 12.4027C27.4527 14.0263 28 15.918 28 17.9375ZM23.5681 9.14421L7.05394 22.3555C6.45676 21.0044 6.125 19.5097 6.125 17.9375C6.125 11.8969 11.0219 7 17.0625 7C19.4993 7 21.7499 7.79687 23.5681 9.14421Z" fill="#FFFFFF"/>
</svg>
