<svg width="32" height="21" viewBox="0 0 32 21" fill="none" xmlns="http://www.w3.org/2000/svg">
<path d="M15.522 14.124C16.7783 13.068 17.6794 11.6512 18.1032 10.0656C18.5269 8.48011 18.4528 6.80261 17.8908 5.26065C17.3289 3.71868 16.3063 2.38687 14.9617 1.44581C13.6171 0.504755 12.0156 0 10.3745 0C8.73328 0 7.13182 0.504755 5.78724 1.44581C4.44267 2.38687 3.42005 3.71868 2.85808 5.26065C2.29611 6.80261 2.22198 8.48011 2.64574 10.0656C3.0695 11.6512 3.97064 13.068 5.22696 14.124C3.26519 15.011 1.56511 16.3887 0.290713 18.124C0.055333 18.4447 -0.0429901 18.8458 0.0173731 19.2391C0.0777364 19.6323 0.291842 19.9855 0.612588 20.2209C0.933334 20.4562 1.33445 20.5546 1.72769 20.4942C2.12093 20.4338 2.47408 20.2197 2.70946 19.899C3.59164 18.6942 4.74542 17.7142 6.07718 17.0388C7.40895 16.3633 8.88119 16.0113 10.3745 16.0113C11.8677 16.0113 13.34 16.3633 14.6717 17.0388C16.0035 17.7142 17.1573 18.6942 18.0395 19.899C18.2748 20.2199 18.6281 20.4342 19.0214 20.4946C19.4148 20.5551 19.8161 20.4569 20.137 20.2215C20.4579 19.9861 20.6721 19.6329 20.7326 19.2395C20.7931 18.8462 20.6948 18.4449 20.4595 18.124C19.1843 16.3889 17.4839 15.0113 15.522 14.124ZM5.37446 8.00649C5.37446 7.01758 5.66771 6.05088 6.21711 5.22864C6.76652 4.40639 7.54742 3.76553 8.46105 3.38709C9.37468 3.00865 10.38 2.90964 11.3499 3.10256C12.3198 3.29549 13.2107 3.77169 13.91 4.47096C14.6093 5.17022 15.0855 6.06113 15.2784 7.03104C15.4713 8.00094 15.3723 9.00628 14.9939 9.91991C14.6154 10.8335 13.9746 11.6144 13.1523 12.1638C12.3301 12.7132 11.3634 13.0065 10.3745 13.0065C9.04838 13.0065 7.77661 12.4797 6.83893 11.542C5.90125 10.6043 5.37446 9.33257 5.37446 8.00649ZM31.137 20.2152C30.9782 20.3319 30.7979 20.4162 30.6066 20.4632C30.4152 20.5102 30.2164 20.519 30.0217 20.4892C29.8269 20.4594 29.6399 20.3914 29.4713 20.2893C29.3028 20.1872 29.1561 20.0529 29.0395 19.894C28.1551 18.6915 27.0009 17.7132 25.6696 17.0381C24.3383 16.3629 22.8672 16.0095 21.3745 16.0065C20.9766 16.0065 20.5951 15.8485 20.3138 15.5671C20.0325 15.2858 19.8745 14.9043 19.8745 14.5065C19.8745 14.1087 20.0325 13.7271 20.3138 13.4458C20.5951 13.1645 20.9766 13.0065 21.3745 13.0065C22.1107 13.0056 22.8376 12.8422 23.5033 12.5279C24.1691 12.2136 24.7572 11.7561 25.2256 11.1882C25.6941 10.6203 26.0314 9.95593 26.2134 9.24258C26.3954 8.52923 26.4176 7.78448 26.2785 7.06155C26.1394 6.33861 25.8423 5.65532 25.4085 5.06048C24.9748 4.46564 24.415 3.97393 23.7692 3.62046C23.1234 3.267 22.4075 3.06051 21.6726 3.01575C20.9378 2.97098 20.2021 3.08904 19.5182 3.36149C19.335 3.4365 19.1388 3.47451 18.9408 3.47332C18.7428 3.47213 18.5471 3.43176 18.3648 3.35455C18.1825 3.27733 18.0173 3.16479 17.8787 3.02342C17.7401 2.88206 17.6309 2.71465 17.5573 2.53086C17.4837 2.34708 17.4472 2.15054 17.45 1.95259C17.4527 1.75464 17.4946 1.55919 17.5732 1.37751C17.6519 1.19583 17.7657 1.03151 17.9082 0.894032C18.0506 0.756553 18.2189 0.648631 18.4032 0.576489C20.1686 -0.13033 22.128 -0.185171 23.9302 0.4218C25.7324 1.02877 27.2594 2.25786 28.2375 3.88868C29.2155 5.5195 29.5807 7.4454 29.2675 9.32106C28.9542 11.1967 27.9831 12.8995 26.5282 14.124C28.49 15.011 30.1901 16.3887 31.4645 18.124C31.6975 18.445 31.7939 18.8453 31.7325 19.2372C31.6711 19.6292 31.457 19.9808 31.137 20.2152Z" fill="black"/>
</svg>
