<svg
          width="231"
          height="227"
          viewBox="0 0 231 227"
          fill="currentColor"
          xmlns="http://www.w3.org/2000/svg"
        >
          <path
            d="M226.615 119.721L207.515 110.805C206.736 110.442 206.243 109.729 206.23 108.947L205.614 73.4631C205.563 70.4771 203.76 67.7318 200.861 66.2227L124.863 26.6635C119.013 23.6183 111.791 23.5376 105.857 26.4511L26.9901 65.1709C25.4587 65.9228 24.508 67.355 24.508 68.91V79.688C24.508 81.2126 25.4222 82.6217 26.9069 83.3853L57.2795 99.0062C58.8813 99.83 60.8856 98.8026 60.8856 97.1576V85.2998C60.8856 80.6191 63.7566 76.3108 68.3747 74.0616L104.694 56.3726C110.505 53.5426 117.545 53.5721 123.326 56.4507L161.303 75.363C165.854 77.6296 168.673 81.9052 168.673 86.5426V94.9924C168.673 98.0196 170.475 100.821 173.411 102.356L221.525 127.515C227.395 130.585 231 136.188 231 142.242V162.27C231 168.475 227.215 174.193 221.113 177.206L124.634 224.85C118.716 227.772 111.505 227.712 105.65 224.691L9.57328 175.127C3.64724 172.069 0 166.439 0 160.349V108.461C0 106.833 1.96709 105.804 3.56857 106.594L23.2711 116.312C24.0345 116.688 24.508 117.403 24.508 118.179V152.977C24.508 156.04 26.3519 158.868 29.3411 160.39L105.697 199.277C111.529 202.247 118.683 202.293 124.564 199.399L202.092 161.241C203.621 160.489 204.57 159.058 204.57 157.504V145.738C204.57 144.215 203.657 142.807 202.174 142.043L148.091 114.179C145.125 112.651 143.3 109.835 143.3 106.788V95.9824C143.3 92.832 141.349 89.9373 138.225 88.4505L118.435 79.034C115.676 77.7214 112.371 77.6846 109.576 78.9354L91.9318 86.8325C88.689 88.2839 86.643 91.2357 86.643 94.4629V130.466C86.643 133.482 88.433 136.275 91.3524 137.814L113.914 149.705C114.644 150.089 115.092 150.788 115.092 151.542V170.572C115.092 172.201 113.123 173.23 111.521 172.439L70.7687 152.304C64.6686 149.29 60.8856 143.573 60.8856 137.37V131.684C60.8856 128.629 59.0505 125.806 56.0727 124.281L9.6258 100.494C3.67016 97.4438 0 91.799 0 85.6893V64.133C0 57.9095 3.80693 52.1782 9.93755 49.1721L105.887 2.12526C111.805 -0.776667 119.003 -0.70234 124.844 2.321L220.586 51.8785C226.498 54.9389 230.135 60.5621 230.135 66.6437V117.83C230.135 119.437 228.215 120.468 226.615 119.721Z"
            fill="currentColor"
          />
          <path
            d="M118.503 99.5366C118.503 99.3007 118.719 99.1095 118.984 99.1095H132.439C132.705 99.1095 132.92 99.3007 132.92 99.5366V111.497C132.92 111.733 132.705 111.924 132.439 111.924H118.984C118.719 111.924 118.503 111.733 118.503 111.497V99.5366Z"
            fill="currentColor"
          />
          <path
            d="M98.032 99.5366C98.032 99.3007 98.2472 99.1095 98.5126 99.1095H111.968C112.233 99.1095 112.449 99.3007 112.449 99.5366V111.497C112.449 111.733 112.233 111.924 111.968 111.924H98.5126C98.2472 111.924 98.032 111.733 98.032 111.497V99.5366Z"
            fill="currentColor"
          />
          <path
            d="M98.032 115.427C98.032 115.191 98.2472 115 98.5126 115H111.968C112.233 115 112.449 115.191 112.449 115.427V127.387C112.449 127.623 112.233 127.814 111.968 127.814H98.5126C98.2472 127.814 98.032 127.623 98.032 127.387V115.427Z"
            fill="currentColor"
          />
          <path
            d="M118.503 115.427C118.503 115.191 118.719 115 118.984 115H132.439C132.705 115 132.92 115.191 132.92 115.427V127.387C132.92 127.623 132.705 127.814 132.439 127.814H118.984C118.719 127.814 118.503 127.623 118.503 127.387V115.427Z"
            fill="currentColor"
          />
        </svg>