<svg width="76" height="40" viewBox="0 0 76 40" fill="none" xmlns="http://www.w3.org/2000/svg">
<path d="M20 0C16.0444 0 12.1776 1.17298 8.8886 3.37061C5.59962 5.56823 3.03617 8.69181 1.52242 12.3463C0.00866569 16.0008 -0.387401 20.0222 0.384303 23.9018C1.15601 27.7814 3.06082 31.3451 5.85787 34.1421C8.65492 36.9392 12.2186 38.844 16.0982 39.6157C19.9778 40.3874 23.9991 39.9913 27.6537 38.4776C31.3082 36.9638 34.4318 34.4004 36.6294 31.1114C38.827 27.8224 40 23.9556 40 20C39.9944 14.6974 37.8855 9.61356 34.136 5.86405C30.3864 2.11453 25.3026 0.00559965 20 0ZM36.8519 18.4615H29.1923C28.9212 12.9885 27.2173 7.79423 24.3615 3.65385C27.7062 4.55179 30.6958 6.45201 32.9287 9.09912C35.1615 11.7462 36.5306 15.0134 36.8519 18.4615ZM20 36.9019C16.3981 33.0038 14.2135 27.4788 13.8904 21.5385H26.1096C25.7865 27.475 23.6019 33.0038 20 36.9019ZM13.8904 18.4615C14.2135 12.525 16.3904 6.99615 20 3.09808C23.6019 6.99615 25.7865 12.5212 26.1096 18.4615H13.8904ZM15.6385 3.65385C12.7827 7.79423 11.0789 12.9885 10.8077 18.4615H3.14808C3.4694 15.0134 4.83848 11.7462 7.07134 9.09912C9.3042 6.45201 12.2938 4.55179 15.6385 3.65385ZM3.14808 21.5385H10.8077C11.0789 27.0115 12.7827 32.2058 15.6385 36.3461C12.2938 35.4482 9.3042 33.548 7.07134 30.9009C4.83848 28.2538 3.4694 24.9866 3.14808 21.5385ZM24.3615 36.3461C27.2173 32.2 28.9212 27.0058 29.1923 21.5385H36.8519C36.5306 24.9866 35.1615 28.2538 32.9287 30.9009C30.6958 33.548 27.7062 35.4482 24.3615 36.3461Z" fill="#70F1EB"/>
<mask id="path-2-outside-1_1_13306" maskUnits="userSpaceOnUse" x="48" y="10" width="27" height="20" fill="black">
<rect fill="white" x="48" y="10" width="27" height="20"/>
<path d="M49.1136 29V11.5455H59.6477V13.4205H51.2273V19.3182H59.1023V21.1932H51.2273V27.125H59.7841V29H49.1136ZM65.196 21.125V29H63.1847V15.9091H65.1278V17.9545H65.2983C65.6051 17.2898 66.071 16.7557 66.696 16.3523C67.321 15.9432 68.1278 15.7386 69.1165 15.7386C70.0028 15.7386 70.7784 15.9205 71.4432 16.2841C72.108 16.642 72.625 17.1875 72.9943 17.9205C73.3636 18.6477 73.5483 19.5682 73.5483 20.6818V29H71.5369V20.8182C71.5369 19.7898 71.2699 18.9886 70.7358 18.4148C70.2017 17.8352 69.4688 17.5455 68.5369 17.5455C67.8949 17.5455 67.321 17.6847 66.8153 17.9631C66.3153 18.2415 65.9205 18.6477 65.6307 19.1818C65.3409 19.7159 65.196 20.3636 65.196 21.125Z"/>
</mask>
<path d="M49.1136 29V11.5455H59.6477V13.4205H51.2273V19.3182H59.1023V21.1932H51.2273V27.125H59.7841V29H49.1136ZM65.196 21.125V29H63.1847V15.9091H65.1278V17.9545H65.2983C65.6051 17.2898 66.071 16.7557 66.696 16.3523C67.321 15.9432 68.1278 15.7386 69.1165 15.7386C70.0028 15.7386 70.7784 15.9205 71.4432 16.2841C72.108 16.642 72.625 17.1875 72.9943 17.9205C73.3636 18.6477 73.5483 19.5682 73.5483 20.6818V29H71.5369V20.8182C71.5369 19.7898 71.2699 18.9886 70.7358 18.4148C70.2017 17.8352 69.4688 17.5455 68.5369 17.5455C67.8949 17.5455 67.321 17.6847 66.8153 17.9631C66.3153 18.2415 65.9205 18.6477 65.6307 19.1818C65.3409 19.7159 65.196 20.3636 65.196 21.125Z" fill="#70F1EB"/>
<path d="M49.1136 29H48.1136V30H49.1136V29ZM49.1136 11.5455V10.5455H48.1136V11.5455H49.1136ZM59.6477 11.5455H60.6477V10.5455H59.6477V11.5455ZM59.6477 13.4205V14.4205H60.6477V13.4205H59.6477ZM51.2273 13.4205V12.4205H50.2273V13.4205H51.2273ZM51.2273 19.3182H50.2273V20.3182H51.2273V19.3182ZM59.1023 19.3182H60.1023V18.3182H59.1023V19.3182ZM59.1023 21.1932V22.1932H60.1023V21.1932H59.1023ZM51.2273 21.1932V20.1932H50.2273V21.1932H51.2273ZM51.2273 27.125H50.2273V28.125H51.2273V27.125ZM59.7841 27.125H60.7841V26.125H59.7841V27.125ZM59.7841 29V30H60.7841V29H59.7841ZM50.1136 29V11.5455H48.1136V29H50.1136ZM49.1136 12.5455H59.6477V10.5455H49.1136V12.5455ZM58.6477 11.5455V13.4205H60.6477V11.5455H58.6477ZM59.6477 12.4205H51.2273V14.4205H59.6477V12.4205ZM50.2273 13.4205V19.3182H52.2273V13.4205H50.2273ZM51.2273 20.3182H59.1023V18.3182H51.2273V20.3182ZM58.1023 19.3182V21.1932H60.1023V19.3182H58.1023ZM59.1023 20.1932H51.2273V22.1932H59.1023V20.1932ZM50.2273 21.1932V27.125H52.2273V21.1932H50.2273ZM51.2273 28.125H59.7841V26.125H51.2273V28.125ZM58.7841 27.125V29H60.7841V27.125H58.7841ZM59.7841 28H49.1136V30H59.7841V28ZM65.196 29V30H66.196V29H65.196ZM63.1847 29H62.1847V30H63.1847V29ZM63.1847 15.9091V14.9091H62.1847V15.9091H63.1847ZM65.1278 15.9091H66.1278V14.9091H65.1278V15.9091ZM65.1278 17.9545H64.1278V18.9545H65.1278V17.9545ZM65.2983 17.9545V18.9545H65.9381L66.2063 18.3736L65.2983 17.9545ZM66.696 16.3523L67.2383 17.1925L67.2437 17.189L66.696 16.3523ZM71.4432 16.2841L70.9633 17.1614L70.9691 17.1646L71.4432 16.2841ZM72.9943 17.9205L72.1013 18.3704L72.1027 18.3732L72.9943 17.9205ZM73.5483 29V30H74.5483V29H73.5483ZM71.5369 29H70.5369V30H71.5369V29ZM70.7358 18.4148L70.0004 19.0925L70.0038 19.0961L70.7358 18.4148ZM66.8153 17.9631L66.333 17.087L66.3289 17.0894L66.8153 17.9631ZM65.6307 19.1818L64.7517 18.7049L65.6307 19.1818ZM64.196 21.125V29H66.196V21.125H64.196ZM65.196 28H63.1847V30H65.196V28ZM64.1847 29V15.9091H62.1847V29H64.1847ZM63.1847 16.9091H65.1278V14.9091H63.1847V16.9091ZM64.1278 15.9091V17.9545H66.1278V15.9091H64.1278ZM65.1278 18.9545H65.2983V16.9545H65.1278V18.9545ZM66.2063 18.3736C66.4323 17.8839 66.77 17.4948 67.2383 17.1925L66.1537 15.5121C65.3721 16.0166 64.778 16.6956 64.3903 17.5355L66.2063 18.3736ZM67.2437 17.189C67.661 16.9158 68.2607 16.7386 69.1165 16.7386V14.7386C67.995 14.7386 66.9811 14.9705 66.1484 15.5156L67.2437 17.189ZM69.1165 16.7386C69.8637 16.7386 70.4689 16.891 70.9633 17.1614L71.9231 15.4068C71.088 14.95 70.142 14.7386 69.1165 14.7386V16.7386ZM70.9691 17.1646C71.4376 17.4168 71.8158 17.8038 72.1013 18.3704L73.8874 17.4705C73.4342 16.5712 72.7783 15.8673 71.9173 15.4036L70.9691 17.1646ZM72.1027 18.3732C72.3796 18.9185 72.5483 19.671 72.5483 20.6818H74.5483C74.5483 19.4654 74.3477 18.3769 73.8859 17.4677L72.1027 18.3732ZM72.5483 20.6818V29H74.5483V20.6818H72.5483ZM73.5483 28H71.5369V30H73.5483V28ZM72.5369 29V20.8182H70.5369V29H72.5369ZM72.5369 20.8182C72.5369 19.618 72.2224 18.5442 71.4678 17.7335L70.0038 19.0961C70.3174 19.433 70.5369 19.9615 70.5369 20.8182H72.5369ZM71.4712 17.7371C70.7131 16.9146 69.6926 16.5455 68.5369 16.5455V18.5455C69.2449 18.5455 69.6903 18.7559 70.0004 19.0925L71.4712 17.7371ZM68.5369 16.5455C67.7455 16.5455 67.0025 16.7185 66.333 17.0871L67.2976 18.8391C67.6395 18.6508 68.0442 18.5455 68.5369 18.5455V16.5455ZM66.3289 17.0894C65.6526 17.4659 65.1262 18.0148 64.7517 18.7049L66.5096 19.6587C66.7148 19.2807 66.9781 19.017 67.3018 18.8368L66.3289 17.0894ZM64.7517 18.7049C64.3649 19.4179 64.196 20.2385 64.196 21.125H66.196C66.196 20.4888 66.3169 20.0139 66.5096 19.6587L64.7517 18.7049Z" fill="#70F1EB" mask="url(#path-2-outside-1_1_13306)"/>
</svg>
