<svg width="40" height="40" viewBox="0 0 40 40" fill="none" xmlns="http://www.w3.org/2000/svg">
<path d="M39.5432 23.9607C39.342 23.7589 39.0896 23.6159 38.8132 23.5467C38.5368 23.4776 38.2468 23.4851 37.9744 23.5683C34.9828 24.4729 31.802 24.5488 28.7708 23.7878C25.7396 23.0268 22.9715 21.4576 20.7617 19.2472C18.5518 17.0369 16.9829 14.2683 16.2221 11.2365C15.4613 8.20463 15.5371 5.02314 16.4415 2.03099C16.5254 1.75835 16.5334 1.46797 16.4647 1.1911C16.396 0.914229 16.2531 0.661332 16.0514 0.45961C15.8497 0.257888 15.5969 0.114972 15.3201 0.0462338C15.0433 -0.0225048 14.7529 -0.0144657 14.4804 0.0694862C10.3444 1.33671 6.71349 3.87637 4.10417 7.32707C1.82225 10.3573 0.430344 13.964 0.0848178 17.7418C-0.260708 21.5197 0.453838 25.3191 2.14818 28.7132C3.84252 32.1072 6.44953 34.9615 9.67631 36.9553C12.9031 38.9491 16.6218 40.0035 20.4147 39.9999C24.8396 40.0135 29.1468 38.5748 32.6755 35.9043C36.1255 33.2944 38.6646 29.6627 39.9315 25.5259C40.0145 25.2543 40.0222 24.9652 39.9538 24.6896C39.8854 24.4139 39.7435 24.162 39.5432 23.9607ZM30.7889 33.3975C27.4659 35.9009 23.3506 37.1194 19.2006 36.8288C15.0507 36.5381 11.1453 34.7579 8.20354 31.8157C5.26175 28.8735 3.48155 24.9675 3.19063 20.8167C2.89971 16.6659 4.11765 12.5497 6.62026 9.22581C8.25073 7.07219 10.3586 5.32642 12.7781 4.12589C12.6403 5.09335 12.5708 6.06933 12.5702 7.04657C12.576 12.4551 14.7266 17.6406 18.5502 21.465C22.3739 25.2895 27.5583 27.4405 32.9657 27.4463C33.9447 27.4459 34.9225 27.3765 35.8917 27.2383C34.6903 29.6587 32.9435 31.7671 30.7889 33.3975Z" fill="#022E47"/>
<path d="M3.13796 10.1998L12.5512 2.35376L14.1201 10.9844L16.4735 18.8304L25.1023 25.1073L36.8689 26.6765L32.9467 32.1687L24.3179 37.6609L11.7668 36.0917L2.35352 25.1073L3.13796 10.1998Z" fill="#022E47"/>
</svg>
