<svg width="40" height="40" viewBox="0 0 40 40" fill="none" xmlns="http://www.w3.org/2000/svg">
<path d="M18.6667 5.33333V1.33333C18.6667 0.979711 18.8071 0.640573 19.0572 0.390524C19.3072 0.140476 19.6464 0 20 0C20.3536 0 20.6928 0.140476 20.9428 0.390524C21.1929 0.640573 21.3333 0.979711 21.3333 1.33333V5.33333C21.3333 5.68696 21.1929 6.02609 20.9428 6.27614C20.6928 6.52619 20.3536 6.66667 20 6.66667C19.6464 6.66667 19.3072 6.52619 19.0572 6.27614C18.8071 6.02609 18.6667 5.68696 18.6667 5.33333ZM20 9.33333C17.8903 9.33333 15.828 9.95892 14.0739 11.131C12.3198 12.3031 10.9526 13.969 10.1453 15.918C9.33795 17.8671 9.12672 20.0118 9.53829 22.081C9.94987 24.1501 10.9658 26.0507 12.4575 27.5425C13.9493 29.0342 15.8499 30.0501 17.919 30.4617C19.9882 30.8733 22.1329 30.6621 24.082 29.8547C26.031 29.0474 27.6969 27.6802 28.869 25.9261C30.0411 24.172 30.6667 22.1097 30.6667 20C30.6636 17.172 29.5388 14.4607 27.5391 12.4609C25.5393 10.4612 22.828 9.33642 20 9.33333ZM8.39 10.2767C8.64019 10.5269 8.97952 10.6674 9.33333 10.6674C9.68715 10.6674 10.0265 10.5269 10.2767 10.2767C10.5269 10.0265 10.6674 9.68715 10.6674 9.33333C10.6674 8.97952 10.5269 8.64019 10.2767 8.39L7.61 5.72333C7.35981 5.47315 7.02049 5.33259 6.66667 5.33259C6.31285 5.33259 5.97352 5.47315 5.72333 5.72333C5.47315 5.97352 5.33259 6.31285 5.33259 6.66667C5.33259 7.02049 5.47315 7.35981 5.72333 7.61L8.39 10.2767ZM8.39 29.7233L5.72333 32.39C5.47315 32.6402 5.33259 32.9795 5.33259 33.3333C5.33259 33.6872 5.47315 34.0265 5.72333 34.2767C5.97352 34.5269 6.31285 34.6674 6.66667 34.6674C7.02049 34.6674 7.35981 34.5269 7.61 34.2767L10.2767 31.61C10.4005 31.4861 10.4988 31.3391 10.5659 31.1772C10.6329 31.0153 10.6674 30.8419 10.6674 30.6667C10.6674 30.4915 10.6329 30.318 10.5659 30.1561C10.4988 29.9943 10.4005 29.8472 10.2767 29.7233C10.1528 29.5995 10.0057 29.5012 9.84386 29.4341C9.682 29.3671 9.50853 29.3326 9.33333 29.3326C9.15814 29.3326 8.98466 29.3671 8.82281 29.4341C8.66095 29.5012 8.51388 29.5995 8.39 29.7233ZM30.6667 10.6667C30.8418 10.6668 31.0153 10.6324 31.1771 10.5655C31.339 10.4986 31.4861 10.4004 31.61 10.2767L34.2767 7.61C34.5269 7.35981 34.6674 7.02049 34.6674 6.66667C34.6674 6.31285 34.5269 5.97352 34.2767 5.72333C34.0265 5.47315 33.6872 5.33259 33.3333 5.33259C32.9795 5.33259 32.6402 5.47315 32.39 5.72333L29.7233 8.39C29.5367 8.57647 29.4095 8.81415 29.358 9.07292C29.3064 9.3317 29.3328 9.59996 29.4338 9.84372C29.5348 10.0875 29.7059 10.2958 29.9254 10.4423C30.1448 10.5888 30.4028 10.6669 30.6667 10.6667ZM31.61 29.7233C31.3598 29.4731 31.0205 29.3326 30.6667 29.3326C30.3128 29.3326 29.9735 29.4731 29.7233 29.7233C29.4731 29.9735 29.3326 30.3128 29.3326 30.6667C29.3326 31.0205 29.4731 31.3598 29.7233 31.61L32.39 34.2767C32.5139 34.4005 32.6609 34.4988 32.8228 34.5659C32.9847 34.6329 33.1581 34.6674 33.3333 34.6674C33.5085 34.6674 33.682 34.6329 33.8439 34.5659C34.0057 34.4988 34.1528 34.4005 34.2767 34.2767C34.4005 34.1528 34.4988 34.0057 34.5659 33.8439C34.6329 33.682 34.6674 33.5085 34.6674 33.3333C34.6674 33.1581 34.6329 32.9847 34.5659 32.8228C34.4988 32.6609 34.4005 32.5139 34.2767 32.39L31.61 29.7233ZM6.66667 20C6.66667 19.6464 6.52619 19.3072 6.27614 19.0572C6.02609 18.8071 5.68696 18.6667 5.33333 18.6667H1.33333C0.979711 18.6667 0.640573 18.8071 0.390524 19.0572C0.140476 19.3072 0 19.6464 0 20C0 20.3536 0.140476 20.6928 0.390524 20.9428C0.640573 21.1929 0.979711 21.3333 1.33333 21.3333H5.33333C5.68696 21.3333 6.02609 21.1929 6.27614 20.9428C6.52619 20.6928 6.66667 20.3536 6.66667 20ZM20 33.3333C19.6464 33.3333 19.3072 33.4738 19.0572 33.7239C18.8071 33.9739 18.6667 34.313 18.6667 34.6667V38.6667C18.6667 39.0203 18.8071 39.3594 19.0572 39.6095C19.3072 39.8595 19.6464 40 20 40C20.3536 40 20.6928 39.8595 20.9428 39.6095C21.1929 39.3594 21.3333 39.0203 21.3333 38.6667V34.6667C21.3333 34.313 21.1929 33.9739 20.9428 33.7239C20.6928 33.4738 20.3536 33.3333 20 33.3333ZM38.6667 18.6667H34.6667C34.313 18.6667 33.9739 18.8071 33.7239 19.0572C33.4738 19.3072 33.3333 19.6464 33.3333 20C33.3333 20.3536 33.4738 20.6928 33.7239 20.9428C33.9739 21.1929 34.313 21.3333 34.6667 21.3333H38.6667C39.0203 21.3333 39.3594 21.1929 39.6095 20.9428C39.8595 20.6928 40 20.3536 40 20C40 19.6464 39.8595 19.3072 39.6095 19.0572C39.3594 18.8071 39.0203 18.6667 38.6667 18.6667Z" fill="#70F1EB"/>
</svg>
